<svg width="19" height="22" viewBox="0 0 19 22" fill="none" xmlns="http://www.w3.org/2000/svg">
  <path d="M17.4167 2.1625H15.8333V1.44167C15.8333 1.05931 15.6999 0.692619 15.4623 0.422254C15.2248 0.151889 14.9026 0 14.5667 0C14.2307 0 13.9085 0.151889 13.671 0.422254C13.4335 0.692619 13.3 1.05931 13.3 1.44167V2.1625H10.7667V1.44167C10.7667 1.05931 10.6332 0.692619 10.3957 0.422254C10.1581 0.151889 9.83594 0 9.5 0C9.16406 0 8.84188 0.151889 8.60433 0.422254C8.36679 0.692619 8.23333 1.05931 8.23333 1.44167V2.1625H5.7V1.44167C5.7 1.05931 5.56655 0.692619 5.329 0.422254C5.09146 0.151889 4.76927 0 4.43333 0C4.09739 0 3.77521 0.151889 3.53766 0.422254C3.30012 0.692619 3.16667 1.05931 3.16667 1.44167V2.1625H1.58333C1.16341 2.1625 0.76068 2.35236 0.463748 2.69032C0.166815 3.02827 0 3.48664 0 3.96458V18.3813C0 18.8592 0.166815 19.3176 0.463748 19.6555C0.76068 19.9935 1.16341 20.1833 1.58333 20.1833H10.45C10.534 20.1833 10.6145 20.1454 10.6739 20.0778C10.7333 20.0102 10.7667 19.9185 10.7667 19.8229C10.7667 19.7273 10.7333 19.6357 10.6739 19.5681C10.6145 19.5005 10.534 19.4625 10.45 19.4625H1.58333C1.33161 19.4616 1.09041 19.3475 0.912412 19.1449C0.734416 18.9423 0.634085 18.6678 0.633333 18.3813V7.20833H18.3667V13.3354C18.3667 13.431 18.4 13.5227 18.4594 13.5903C18.5188 13.6579 18.5993 13.6958 18.6833 13.6958C18.7673 13.6958 18.8479 13.6579 18.9073 13.5903C18.9666 13.5227 19 13.431 19 13.3354V3.96458C19 3.48664 18.8332 3.02827 18.5363 2.69032C18.2393 2.35236 17.8366 2.1625 17.4167 2.1625ZM13.9333 1.44167C13.9333 1.25049 14.0001 1.06714 14.1188 0.931961C14.2376 0.796778 14.3987 0.720833 14.5667 0.720833C14.7346 0.720833 14.8957 0.796778 15.0145 0.931961C15.1333 1.06714 15.2 1.25049 15.2 1.44167V3.60417C15.2 3.79534 15.1333 3.97869 15.0145 4.11387C14.8957 4.24906 14.7346 4.325 14.5667 4.325C14.3987 4.325 14.2376 4.24906 14.1188 4.11387C14.0001 3.97869 13.9333 3.79534 13.9333 3.60417V1.44167ZM8.86667 1.44167C8.86667 1.25049 8.93339 1.06714 9.05217 0.931961C9.17094 0.796778 9.33203 0.720833 9.5 0.720833C9.66797 0.720833 9.82906 0.796778 9.94783 0.931961C10.0666 1.06714 10.1333 1.25049 10.1333 1.44167V3.60417C10.1333 3.79534 10.0666 3.97869 9.94783 4.11387C9.82906 4.24906 9.66797 4.325 9.5 4.325C9.33203 4.325 9.17094 4.24906 9.05217 4.11387C8.93339 3.97869 8.86667 3.79534 8.86667 3.60417V1.44167ZM3.8 1.44167C3.8 1.25049 3.86673 1.06714 3.9855 0.931961C4.10427 0.796778 4.26536 0.720833 4.43333 0.720833C4.6013 0.720833 4.76239 0.796778 4.88117 0.931961C4.99994 1.06714 5.06667 1.25049 5.06667 1.44167V3.60417C5.06667 3.79534 4.99994 3.97869 4.88117 4.11387C4.76239 4.24906 4.6013 4.325 4.43333 4.325C4.26536 4.325 4.10427 4.24906 3.9855 4.11387C3.86673 3.97869 3.8 3.79534 3.8 3.60417V1.44167ZM18.3667 6.4875H0.633333V3.96458C0.634085 3.67808 0.734416 3.40356 0.912412 3.20097C1.09041 2.99838 1.33161 2.88419 1.58333 2.88333H3.16667V3.60417C3.16667 3.98652 3.30012 4.35321 3.53766 4.62358C3.77521 4.89394 4.09739 5.04583 4.43333 5.04583C4.76927 5.04583 5.09146 4.89394 5.329 4.62358C5.56655 4.35321 5.7 3.98652 5.7 3.60417V2.88333H8.23333V3.60417C8.23333 3.98652 8.36679 4.35321 8.60433 4.62358C8.84188 4.89394 9.16406 5.04583 9.5 5.04583C9.83594 5.04583 10.1581 4.89394 10.3957 4.62358C10.6332 4.35321 10.7667 3.98652 10.7667 3.60417V2.88333H13.3V3.60417C13.3 3.98652 13.4335 4.35321 13.671 4.62358C13.9085 4.89394 14.2307 5.04583 14.5667 5.04583C14.9026 5.04583 15.2248 4.89394 15.4623 4.62358C15.6999 4.35321 15.8333 3.98652 15.8333 3.60417V2.88333H17.4167C17.6684 2.88419 17.9096 2.99838 18.0876 3.20097C18.2656 3.40356 18.3659 3.67808 18.3667 3.96458V6.4875Z" fill="#D61C1C" fill-opacity="0.92"/>
  <path d="M8.86634 9.73127C8.86634 9.54009 8.79961 9.35675 8.68084 9.22156C8.56207 9.08638 8.40098 9.01044 8.23301 9.01044H6.96634C6.79837 9.01044 6.63728 9.08638 6.51851 9.22156C6.39973 9.35675 6.33301 9.54009 6.33301 9.73127V10.8125C6.33301 11.0037 6.39973 11.187 6.51851 11.3222C6.63728 11.4574 6.79837 11.5334 6.96634 11.5334H8.23301C8.40098 11.5334 8.56207 11.4574 8.68084 11.3222C8.79961 11.187 8.86634 11.0037 8.86634 10.8125V9.73127ZM6.96634 10.8125V9.73127H8.23301V10.8125H6.96634Z" fill="#D61C1C" fill-opacity="0.92"/>
  <path d="M5.06654 9.73127C5.06654 9.54009 4.99981 9.35675 4.88104 9.22156C4.76226 9.08638 4.60117 9.01044 4.4332 9.01044H3.16654C2.99857 9.01044 2.83748 9.08638 2.7187 9.22156C2.59993 9.35675 2.5332 9.54009 2.5332 9.73127V10.8125C2.5332 11.0037 2.59993 11.187 2.7187 11.3222C2.83748 11.4574 2.99857 11.5334 3.16654 11.5334H4.4332C4.60117 11.5334 4.76226 11.4574 4.88104 11.3222C4.99981 11.187 5.06654 11.0037 5.06654 10.8125V9.73127ZM3.16654 10.8125V9.73127H4.4332V10.8125H3.16654Z" fill="#D61C1C" fill-opacity="0.92"/>
  <path d="M15.8336 11.5334C16.0016 11.5334 16.1627 11.4574 16.2814 11.3222C16.4002 11.187 16.4669 11.0037 16.4669 10.8125V9.73127C16.4669 9.54009 16.4002 9.35675 16.2814 9.22156C16.1627 9.08638 16.0016 9.01044 15.8336 9.01044H14.5669C14.399 9.01044 14.2379 9.08638 14.1191 9.22156C14.0003 9.35675 13.9336 9.54009 13.9336 9.73127V10.8125C13.9336 11.0037 14.0003 11.187 14.1191 11.3222C14.2379 11.4574 14.399 11.5334 14.5669 11.5334H15.8336ZM14.5669 9.73127H15.8336V10.8125H14.5669V9.73127Z" fill="#D61C1C" fill-opacity="0.92"/>
  <path d="M8.86634 12.975C8.86634 12.7838 8.79961 12.6005 8.68084 12.4653C8.56207 12.3301 8.40098 12.2542 8.23301 12.2542H6.96634C6.79837 12.2542 6.63728 12.3301 6.51851 12.4653C6.39973 12.6005 6.33301 12.7838 6.33301 12.975V14.0562C6.33301 14.2474 6.39973 14.4308 6.51851 14.5659C6.63728 14.7011 6.79837 14.7771 6.96634 14.7771H8.23301C8.40098 14.7771 8.56207 14.7011 8.68084 14.5659C8.79961 14.4308 8.86634 14.2474 8.86634 14.0562V12.975ZM6.96634 14.0562V12.975H8.23301V14.0562H6.96634Z" fill="#D61C1C" fill-opacity="0.92"/>
  <path d="M5.06654 12.975C5.06654 12.7838 4.99981 12.6005 4.88104 12.4653C4.76226 12.3301 4.60117 12.2542 4.4332 12.2542H3.16654C2.99857 12.2542 2.83748 12.3301 2.7187 12.4653C2.59993 12.6005 2.5332 12.7838 2.5332 12.975V14.0562C2.5332 14.2474 2.59993 14.4308 2.7187 14.5659C2.83748 14.7011 2.99857 14.7771 3.16654 14.7771H4.4332C4.60117 14.7771 4.76226 14.7011 4.88104 14.5659C4.99981 14.4308 5.06654 14.2474 5.06654 14.0562V12.975ZM3.16654 14.0562V12.975H4.4332V14.0562H3.16654Z" fill="#D61C1C" fill-opacity="0.92"/>
  <path d="M8.23301 15.4979H6.96634C6.79837 15.4979 6.63728 15.5739 6.51851 15.7091C6.39973 15.8442 6.33301 16.0276 6.33301 16.2188V17.3C6.33301 17.4912 6.39973 17.6745 6.51851 17.8097C6.63728 17.9449 6.79837 18.0208 6.96634 18.0208H8.23301C8.40098 18.0208 8.56207 17.9449 8.68084 17.8097C8.79961 17.6745 8.86634 17.4912 8.86634 17.3V16.2188C8.86634 16.0276 8.79961 15.8442 8.68084 15.7091C8.56207 15.5739 8.40098 15.4979 8.23301 15.4979ZM6.96634 17.3V16.2188H8.23301V17.3H6.96634Z" fill="#D61C1C" fill-opacity="0.92"/>
  <path d="M10.7666 11.5334H12.0333C12.2013 11.5334 12.3624 11.4574 12.4811 11.3222C12.5999 11.187 12.6666 11.0037 12.6666 10.8125V9.73127C12.6666 9.54009 12.5999 9.35675 12.4811 9.22156C12.3624 9.08638 12.2013 9.01044 12.0333 9.01044H10.7666C10.5987 9.01044 10.4376 9.08638 10.3188 9.22156C10.2 9.35675 10.1333 9.54009 10.1333 9.73127V10.8125C10.1333 11.0037 10.2 11.187 10.3188 11.3222C10.4376 11.4574 10.5987 11.5334 10.7666 11.5334ZM10.7666 9.73127H12.0333V10.8125H10.7666V9.73127Z" fill="#D61C1C" fill-opacity="0.92"/>
  <path d="M10.1333 14.0562C10.1333 14.2474 10.2 14.4308 10.3188 14.5659C10.4376 14.7011 10.5987 14.7771 10.7666 14.7771C10.8506 14.7771 10.9312 14.7391 10.9906 14.6715C11.0499 14.6039 11.0833 14.5122 11.0833 14.4167C11.0833 14.3211 11.0499 14.2294 10.9906 14.1618C10.9312 14.0942 10.8506 14.0562 10.7666 14.0562V12.975H12.0333C12.1173 12.975 12.1978 12.937 12.2572 12.8694C12.3166 12.8018 12.35 12.7102 12.35 12.6146C12.35 12.519 12.3166 12.4273 12.2572 12.3597C12.1978 12.2921 12.1173 12.2542 12.0333 12.2542H10.7666C10.5987 12.2542 10.4376 12.3301 10.3188 12.4653C10.2 12.6005 10.1333 12.7838 10.1333 12.975V14.0562Z" fill="#D61C1C" fill-opacity="0.92"/>
  <path d="M4.4332 15.4979H3.16654C2.99857 15.4979 2.83748 15.5739 2.7187 15.7091C2.59993 15.8442 2.5332 16.0276 2.5332 16.2188V17.3C2.5332 17.4912 2.59993 17.6745 2.7187 17.8097C2.83748 17.9449 2.99857 18.0208 3.16654 18.0208H4.4332C4.60117 18.0208 4.76226 17.9449 4.88104 17.8097C4.99981 17.6745 5.06654 17.4912 5.06654 17.3V16.2188C5.06654 16.0276 4.99981 15.8442 4.88104 15.7091C4.76226 15.5739 4.60117 15.4979 4.4332 15.4979ZM3.16654 17.3V16.2188H4.4332V17.3H3.16654Z" fill="#D61C1C" fill-opacity="0.92"/>
  <path d="M14.8833 12.2542C14.0691 12.2542 13.2732 12.5289 12.5962 13.0438C11.9192 13.5586 11.3915 14.2904 11.08 15.1465C10.7684 16.0027 10.6869 16.9448 10.8457 17.8536C11.0045 18.7625 11.3966 19.5974 11.9723 20.2526C12.5481 20.9079 13.2816 21.3541 14.0801 21.5349C14.8787 21.7157 15.7064 21.6229 16.4586 21.2683C17.2109 20.9137 17.8538 20.3131 18.3061 19.5426C18.7585 18.7721 18.9999 17.8662 18.9999 16.9396C18.9987 15.6973 18.5645 14.5064 17.7928 13.6281C17.021 12.7497 15.9747 12.2556 14.8833 12.2542ZM14.8833 20.9041C14.1943 20.9041 13.5209 20.6716 12.948 20.236C12.3752 19.8003 11.9287 19.1812 11.6651 18.4567C11.4014 17.7323 11.3325 16.9352 11.4669 16.1661C11.6013 15.3971 11.933 14.6906 12.4202 14.1362C12.9073 13.5817 13.528 13.2041 14.2037 13.0512C14.8794 12.8982 15.5798 12.9767 16.2163 13.2768C16.8528 13.5768 17.3968 14.085 17.7795 14.737C18.1623 15.3889 18.3666 16.1554 18.3666 16.9396C18.3655 17.9906 17.9982 18.9983 17.3451 19.7416C16.6921 20.4848 15.8068 20.9029 14.8833 20.9041Z" fill="#D61C1C" fill-opacity="0.92"/>
  <path d="M16.7129 15.4287L14.2498 18.2321L13.1304 16.9576C13.0707 16.892 12.9907 16.8557 12.9077 16.8565C12.8246 16.8573 12.7452 16.8952 12.6865 16.962C12.6278 17.0289 12.5945 17.1192 12.5938 17.2137C12.593 17.3082 12.625 17.3993 12.6826 17.4673L14.0259 18.9965C14.0853 19.0641 14.1659 19.102 14.2498 19.102C14.3338 19.102 14.4143 19.0641 14.4737 18.9965L17.1606 15.9384C17.2183 15.8704 17.2502 15.7794 17.2495 15.6849C17.2488 15.5904 17.2155 15.5 17.1568 15.4331C17.098 15.3663 17.0186 15.3284 16.9356 15.3276C16.8526 15.3268 16.7726 15.3631 16.7129 15.4287Z" fill="#D61C1C" fill-opacity="0.92"/>
</svg>  