<svg width="31" height="29" viewBox="0 0 31 29" fill="none" xmlns="http://www.w3.org/2000/svg">
  <path d="M1.21094 13.3672H29.7891C30.4579 13.3672 31 13.8743 31 14.5C31 15.1257 30.4579 15.6328 29.7891 15.6328H1.21094C0.542137 15.6328 0 15.1257 0 14.5C0 13.8743 0.542137 13.3672 1.21094 13.3672Z" fill="white"/>
  <path d="M1.21094 4.30469H29.7891C30.4579 4.30469 31 4.81185 31 5.4375C31 6.06315 30.4579 6.57031 29.7891 6.57031H1.21094C0.542137 6.57031 0 6.06315 0 5.4375C0 4.81185 0.542137 4.30469 1.21094 4.30469Z" fill="white"/>
  <path d="M1.21094 22.4297H29.7891C30.4579 22.4297 31 22.9368 31 23.5625C31 24.1882 30.4579 24.6953 29.7891 24.6953H1.21094C0.542137 24.6953 0 24.1882 0 23.5625C0 22.9368 0.542137 22.4297 1.21094 22.4297Z" fill="white"/>
</svg>